<svg id="Layer_1" data-name="Layer 1" xmlns="http://www.w3.org/2000/svg" xmlns:xlink="http://www.w3.org/1999/xlink" viewBox="0 0 344.19 150.08"><defs><style>.cls-1,.cls-2{fill:none;}.cls-1,.cls-4{opacity:0.05;}.cls-3{clip-path:url(#clip-path);}.cls-4,.cls-6{fill:#023059;}.cls-5{clip-path:url(#clip-path-2);}.cls-11,.cls-7,.cls-8{fill:#fff;}.cls-10,.cls-8{fill-rule:evenodd;}.cls-10,.cls-9{fill:#008cc4;}.cls-11{font-size:32px;font-family:Nunito-SemiBold, Nunito;font-weight:600;}.cls-12{letter-spacing:-0.08em;}.cls-13{letter-spacing:0em;}.cls-14{letter-spacing:-0.01em;}</style><clipPath id="clip-path"><rect class="cls-1" x="-794.5" y="-1399.95" width="1920" height="1281.65"/></clipPath><clipPath id="clip-path-2"><rect class="cls-2" x="-787.91" y="-701.85" width="1920" height="481.04"/></clipPath></defs><title>full-logo-white</title><g class="cls-3"><ellipse class="cls-4" cx="165.5" cy="359.43" rx="1706.74" ry="1759.38"/></g><g class="cls-5"><circle class="cls-6" cx="171.96" cy="2054.59" r="2686.43"/></g><path class="cls-7" d="M148.52,8.2a39,39,0,0,1,10.71-5.92,38.52,38.52,0,0,1,37.94,6.9h0A38.33,38.33,0,0,1,204,16.76l-2.65.62c-1.69-2.48-5.2-2.46-7.43-4.37h0a33.7,33.7,0,0,0-7.45-4.79c-8.34-3.93-15.1,2.71-23.14,5.62-16.94-3.08-26.5,18.79-23.67,31.36-6.77-13.19-1.14-29.13,8.88-37Z"/><path class="cls-8" d="M151.63,6.45c-6.28,7.68,5.91-1.63,9.57,4.5a24.87,24.87,0,0,0,8,7.87c6,3.85,7.3,3.38,10.43,8.15,2.14,3.25,5.8-3.43.21-8.09-2.29-1.88-5-3.81-4.55-5.51.61-2.39,5.18-2.35,7.06-2.07,8.46,1.22,11.66,2.79,15.83,5.59s6.38,5.38,8,5.05c2.79-.54.33-3-.11-3.56-3-3.77-10.82-11.22-18.48-12.87-9.64-2.09-20.32-10.08-36,.94Zm36.21,7.1a28.14,28.14,0,0,1,1.94,3.26c2.4,4.92,4.69,5.43,5.53,4.57.58-.62-1.08-3.58-2.72-6.4a30,30,0,0,0-4.75-1.43Zm5.42,1.71a27.53,27.53,0,0,1,2.61,3.93c2.57,4.84,4.87,5.28,5.68,4.39.45-.51-.54-2.42-1.84-4.56-.53-.38-1.11-.77-1.71-1.16a32,32,0,0,0-4.74-2.6Zm-9.86-2.48a18.1,18.1,0,0,1,1.16,2.05c2.18,4.48,4.26,4.94,5,4.15.52-.54-.86-3.07-2.3-5.55-1.16-.23-2.44-.45-3.88-.65Z"/><path class="cls-9" d="M195.67,68.4a38.47,38.47,0,0,1-48.65-1h0a38.33,38.33,0,0,1-6.82-7.57l2.64-.62c1.69,2.48,5.2,2.46,7.44,4.36h0a33.1,33.1,0,0,0,7.44,4.8c8.34,3.92,15.11-2.71,23.15-5.62,16.94,3.07,26.48-18.8,23.67-31.36,6.75,13.18,1.14,29.13-8.89,37Z"/><path class="cls-10" d="M192.56,70.16c6.27-7.68-5.91,1.63-9.56-4.5a24.79,24.79,0,0,0-8-7.88c-5.95-3.84-7.3-3.37-10.44-8.14-2.13-3.25-5.8,3.42-.2,8.07,2.28,1.9,5,3.82,4.53,5.53-.59,2.38-5.18,2.33-7,2.07-8.47-1.23-11.67-2.8-15.83-5.6s-6.38-5.38-8.07-5c-2.79.53-.32,3,.13,3.55,2.95,3.78,10.82,11.23,18.46,12.88,9.66,2.09,20.32,10.08,36-.94Zm-36.2-7.11a24.37,24.37,0,0,1-1.94-3.25c-2.4-4.92-4.69-5.43-5.53-4.57-.6.62,1.06,3.57,2.72,6.4a28.78,28.78,0,0,0,4.75,1.42Zm-5.42-1.7a28.34,28.34,0,0,1-2.63-3.93c-2.55-4.85-4.87-5.29-5.67-4.39-.46.5.55,2.42,1.84,4.56.54.38,1.11.77,1.72,1.16a32.46,32.46,0,0,0,4.74,2.6Zm9.85,2.47c-.44-.7-.84-1.39-1.17-2-2.16-4.48-4.25-4.94-5-4.16-.54.54.86,3.06,2.3,5.56,1.15.23,2.43.44,3.87.64Z"/><text class="cls-11" transform="translate(0 141.28)"><tspan class="cls-12">T</tspan><tspan x="16.9" y="0">og</tspan><tspan class="cls-13" x="53.98" y="0">e</tspan><tspan x="70.75" y="0">ther Th</tspan><tspan class="cls-14" x="175.36" y="0">r</tspan><tspan x="186.75" y="0">ough Skills</tspan></text></svg>